<svg width="1440" height="510" viewBox="0 0 1440 510" fill="none" xmlns="http://www.w3.org/2000/svg">
<path d="M0 155.477L34.5433 132.649C69.0867 109.821 138.173 64.1651 206.939 41.0904C275.865 18.139 344.309 17.6454 413.235 32.4527C482 47.2601 551.087 77.3684 619.852 89.7078C688.778 102.047 757.222 96.6179 826.148 104.515C894.913 112.289 964 133.266 1032.77 136.721C1101.69 140.3 1170.14 126.233 1239.06 100.567C1307.83 74.9005 1376.91 37.3885 1411.46 18.756L1446 0V269H1411.46C1376.91 269 1307.83 269 1239.06 269C1170.14 269 1101.69 269 1032.77 269C964 269 894.913 269 826.148 269C757.222 269 688.778 269 619.852 269C551.087 269 482 269 413.235 269C344.309 269 275.865 269 206.939 269C138.173 269 69.0867 269 34.5433 269H0V155.477Z" fill="black"/>
<rect y="241" width="1446" height="269" fill="black"/>
</svg>
