<svg width="1440" height="887" viewBox="0 0 1440 887" fill="none" xmlns="http://www.w3.org/2000/svg">
<g clip-path="url(#clip0_94_27)">
<path d="M1556.07 286.597L1515.84 292.967C1475.59 299.239 1395.14 311.978 1313.6 318.88C1231.88 325.815 1149.25 326.879 1069.01 339.683C988.953 352.453 911.469 376.93 835.619 406.329C759.582 435.762 685.365 470.083 604.382 479.952C523.585 489.788 436.208 475.139 353.185 476.172C269.976 477.238 191.307 493.953 110.571 504.8C30.0213 515.615 -52.4095 520.529 -93.6496 522.888L-134.865 525.345L-192.246 298.415L-152.218 291.262C-112.19 284.11 -32.1335 269.806 47.5505 255.568C127.421 241.297 206.733 227.126 286.603 212.855C366.287 198.617 446.343 184.313 526.027 170.075C605.897 155.804 685.209 141.633 765.079 127.362C844.763 113.124 924.82 98.8194 1004.5 84.5816C1084.37 70.3106 1163.69 56.1393 1243.56 41.8682C1323.24 27.6304 1403.3 13.3261 1443.32 6.17396L1483.35 -0.978201L1556.07 286.597Z" fill="#060606"/>
<path d="M1552.36 271.925L1508.92 265.579C1465.45 259.135 1378.57 246.442 1297.67 255.887C1216.62 265.463 1141.76 297.241 1062.92 315.62C984.254 333.868 901.823 338.782 820.408 346.173C738.806 353.597 658.406 363.465 581.183 388.202C504.145 412.906 430.421 452.251 352.888 474.998C275.17 497.779 193.78 503.734 113.02 514.484C32.4207 525.103 -47.3883 540.385 -87.2928 548.026L-127.197 555.668L-192.246 298.415L-152.218 291.263C-112.19 284.11 -32.1332 269.806 47.5509 255.568C127.421 241.297 206.733 227.126 286.603 212.855C366.287 198.617 446.343 184.313 526.027 170.075C605.898 155.804 685.209 141.633 765.08 127.362C844.764 113.124 924.82 98.8195 1004.5 84.5817C1084.37 70.3106 1163.69 56.1394 1243.56 41.8683C1323.24 27.6305 1403.3 13.3262 1443.32 6.17401L1483.35 -0.978148L1552.36 271.925Z" fill="#0E0E0E"/>
<path d="M1515.26 125.203L1475.65 134.018C1436.02 142.735 1356.8 160.365 1277.39 175.679C1197.82 191.124 1118.26 204.317 1039.3 222.207C960.51 239.966 882.531 262.487 803.861 280.735C725.03 299.114 645.718 313.286 567.505 334.11C489.454 354.804 412.712 382.215 334.833 403.594C256.768 425.005 177.803 440.546 96.3497 448.557C15.1075 456.632 -68.4115 457.242 -110.171 457.548L-151.931 457.853L-192.246 298.415L-152.218 291.262C-112.189 284.11 -32.1331 269.806 47.5509 255.568C127.421 241.297 206.733 227.126 286.603 212.855C366.287 198.617 446.344 184.313 526.027 170.075C605.898 155.804 685.209 141.633 765.08 127.362C844.764 113.124 924.82 98.8194 1004.5 84.5816C1084.37 70.3106 1163.69 56.1393 1243.56 41.8683C1323.24 27.6305 1403.3 13.3261 1443.32 6.17398L1483.35 -0.97818L1515.26 125.203Z" fill="#141414"/>
<path d="M1516 128.137L1475.92 135.094C1435.87 142.148 1355.71 156.061 1274.97 166.093C1194.03 176.158 1112.64 182.113 1031.22 190.222C949.973 198.297 868.829 208.298 789.244 222.927C709.448 237.491 631.373 256.553 552.442 274.541C473.723 292.594 394.31 309.441 316.852 332.482C239.207 355.557 163.704 384.791 83.7848 398.867C4.05127 412.909 -79.8635 411.954 -121.846 411.379L-163.803 410.902L-192.246 298.415L-152.218 291.262C-112.19 284.11 -32.1335 269.806 47.5505 255.568C127.421 241.297 206.732 227.126 286.603 212.855C366.287 198.617 446.343 184.313 526.027 170.075C605.897 155.804 685.209 141.633 765.079 127.362C844.763 113.124 924.82 98.8194 1004.5 84.5816C1084.37 70.3106 1163.69 56.1393 1243.56 41.8683C1323.24 27.6305 1403.3 13.3261 1443.32 6.17398L1483.35 -0.978182L1516 128.137Z" fill="#191919"/>
<path d="M1497.95 56.7325L1458.12 64.6672C1418.31 72.6997 1338.65 88.5691 1258.94 102.709C1179.02 116.784 1099.21 128.999 1018.85 141.314C938.67 153.596 858.119 165.944 778.064 178.714C697.823 191.518 618.264 204.711 539.309 222.601C460.515 240.361 382.537 262.881 304.905 285.238C227.088 307.627 149.854 330.015 70.0085 344.384C-9.62611 358.817 -91.6611 365.297 -132.679 368.536L-173.696 371.776L-192.246 298.415L-152.218 291.262C-112.19 284.11 -32.1334 269.806 47.5507 255.568C127.421 241.297 206.733 227.126 286.603 212.855C366.287 198.617 446.343 184.313 526.027 170.075C605.897 155.804 685.209 141.633 765.079 127.362C844.763 113.124 924.82 98.8194 1004.5 84.5816C1084.37 70.3106 1163.69 56.1393 1243.56 41.8682C1323.24 27.6304 1403.3 13.3261 1443.32 6.17396L1483.35 -0.978201L1497.95 56.7325Z" fill="#1E1E1E"/>
</g>
<defs>
<clipPath id="clip0_94_27">
<rect width="1702.14" height="605.36" rx="32" transform="matrix(-0.98441 0.175892 -0.245143 -0.969487 1632 586.889)" fill="white"/>
</clipPath>
</defs>
</svg>
