<svg width="1440" height="887" viewBox="0 0 1440 887" fill="none" xmlns="http://www.w3.org/2000/svg">
<g clip-path="url(#clip0_94_20)">
<path d="M-116.069 599.684L-75.8425 593.315C-35.5917 587.043 44.8604 574.303 126.399 567.402C208.125 560.467 290.751 559.403 370.992 546.599C451.047 533.828 528.531 509.351 604.381 479.952C680.418 450.52 754.635 416.199 835.618 406.329C916.415 396.493 1003.79 411.142 1086.82 410.109C1170.02 409.043 1248.69 392.329 1329.43 381.481C1409.98 370.667 1492.41 365.753 1533.65 363.394L1574.86 360.936L1632.25 587.867L1592.22 595.019C1552.19 602.171 1472.13 616.475 1392.45 630.713C1312.58 644.984 1233.27 659.156 1153.4 673.427C1073.71 687.664 993.657 701.969 913.973 716.206C834.103 730.478 754.791 744.649 674.921 758.92C595.237 773.158 515.18 787.462 435.496 801.7C355.626 815.971 276.314 830.142 196.444 844.413C116.76 858.651 36.7037 872.955 -3.32448 880.107L-43.3527 887.26L-116.069 599.684Z" fill="#060606"/>
<path d="M-112.359 614.356L-68.9175 620.703C-25.4514 627.147 61.4314 639.839 142.327 630.394C223.385 620.818 298.244 589.04 377.076 570.661C455.746 552.413 538.177 547.499 619.592 540.108C701.194 532.684 781.593 522.817 858.817 498.079C935.855 473.376 1009.58 434.031 1087.11 411.283C1164.83 388.502 1246.22 382.547 1326.98 371.797C1407.58 361.179 1487.39 345.896 1527.29 338.255L1567.2 330.614L1632.25 587.867L1592.22 595.019C1552.19 602.171 1472.13 616.475 1392.45 630.713C1312.58 644.984 1233.27 659.155 1153.4 673.427C1073.71 687.664 993.657 701.969 913.973 716.206C834.102 730.477 754.791 744.649 674.92 758.92C595.236 773.158 515.18 787.462 435.496 801.7C355.626 815.971 276.314 830.142 196.444 844.413C116.76 858.651 36.7034 872.955 -3.32479 880.107L-43.353 887.26L-112.359 614.356Z" fill="#0E0E0E"/>
<path d="M-75.259 761.079L-35.6513 752.263C3.98116 743.546 83.1966 725.916 162.609 710.603C242.182 695.158 321.741 681.965 400.696 664.074C479.49 646.315 557.468 623.794 636.138 605.546C714.97 587.167 794.282 572.996 872.495 552.171C950.546 531.478 1027.29 504.066 1105.17 482.688C1183.23 461.276 1262.2 445.736 1343.65 437.725C1424.89 429.649 1508.41 429.039 1550.17 428.734L1591.93 428.429L1632.25 587.867L1592.22 595.019C1552.19 602.171 1472.13 616.475 1392.45 630.713C1312.58 644.984 1233.27 659.155 1153.4 673.427C1073.71 687.664 993.656 701.969 913.972 716.206C834.102 730.477 754.79 744.649 674.92 758.92C595.236 773.158 515.18 787.462 435.496 801.7C355.626 815.971 276.314 830.142 196.444 844.413C116.76 858.651 36.7033 872.955 -3.32488 880.107L-43.3531 887.26L-75.259 761.079Z" fill="#141414"/>
<path d="M-76.0006 758.144L-35.9229 751.187C4.13 744.133 84.2853 730.22 165.033 720.188C245.967 710.123 327.356 704.168 408.784 696.06C490.027 687.984 571.171 677.984 650.756 663.355C730.552 648.79 808.627 629.728 887.558 611.74C966.277 593.688 1045.69 576.84 1123.15 553.799C1200.79 530.725 1276.3 501.49 1356.22 487.414C1435.95 473.372 1519.86 474.327 1561.85 474.902L1603.8 475.38L1632.25 587.867L1592.22 595.019C1552.19 602.171 1472.13 616.475 1392.45 630.713C1312.58 644.984 1233.27 659.155 1153.4 673.426C1073.71 687.664 993.657 701.969 913.973 716.206C834.103 730.477 754.791 744.649 674.921 758.92C595.237 773.158 515.18 787.462 435.496 801.7C355.626 815.971 276.314 830.142 196.444 844.413C116.76 858.651 36.7037 872.955 -3.32445 880.107L-43.3526 887.259L-76.0006 758.144Z" fill="#191919"/>
<path d="M-57.9454 829.549L-18.1151 821.614C21.6905 813.582 101.351 797.712 181.06 783.572C260.98 769.497 340.786 757.282 421.151 744.967C501.33 732.686 581.881 720.338 661.936 707.567C742.177 694.763 821.736 681.57 900.691 663.68C979.485 645.921 1057.46 623.4 1135.09 601.044C1212.91 578.654 1290.15 556.266 1369.99 541.897C1449.63 527.464 1531.66 520.985 1572.68 517.745L1613.7 514.506L1632.25 587.867L1592.22 595.019C1552.19 602.171 1472.13 616.475 1392.45 630.713C1312.58 644.984 1233.27 659.155 1153.4 673.427C1073.71 687.664 993.657 701.969 913.973 716.206C834.102 730.477 754.791 744.649 674.921 758.92C595.237 773.158 515.18 787.462 435.496 801.7C355.626 815.971 276.314 830.142 196.444 844.413C116.76 858.651 36.7036 872.955 -3.32459 880.107L-43.3528 887.26L-57.9454 829.549Z" fill="#1E1E1E"/>
</g>
<defs>
<clipPath id="clip0_94_20">
<rect width="1702.14" height="605.36" fill="white" transform="matrix(0.984409 -0.175892 0.245143 0.969487 -192 299.393)"/>
</clipPath>
</defs>
</svg>
